<?xml version="1.0" encoding="utf-8"?>
<!-- Generator: Adobe Illustrator 24.2.0, SVG Export Plug-In . SVG Version: 6.00 Build 0)  -->
<svg version="1.1" id="Layer_1" xmlns="http://www.w3.org/2000/svg" xmlns:xlink="http://www.w3.org/1999/xlink" x="0px" y="0px"
	 viewBox="0 0 158.8 158.8" style="enable-background:new 0 0 158.8 158.8;" xml:space="preserve">
<style type="text/css">
	.st0{fill:#FFE4B1;}
</style>
<g>
	<g>
		<g>
			<g>
				<g>
					<path class="st0" d="M79.3,155.7c-19.7,0-38.3-7.5-52.6-21.1C12.4,121,4.1,102.5,3.2,82.8C2.3,62.4,9.4,43,23.1,27.9
						S55.7,4.1,76,3.2c1.1,0,2.3-0.1,3.4-0.1c19.7,0,38.3,7.5,52.6,21.1c14.3,13.6,22.7,32,23.5,51.8c0.9,20.4-6.2,39.9-19.9,54.9
						c-13.8,15-32.5,23.8-52.9,24.7C81.6,155.6,80.5,155.7,79.3,155.7z M79.5,4c-1.1,0-2.3,0-3.4,0.1C55.9,5,37.4,13.6,23.8,28.5
						C10.2,43.3,3.2,62.6,4.1,82.7c0.9,19.5,9.1,37.7,23.3,51.2c14.1,13.4,32.6,20.9,52,20.9c1.1,0,2.3,0,3.4-0.1
						c20.1-0.9,38.7-9.6,52.3-24.4s20.6-34.1,19.7-54.2c-0.9-19.5-9.1-37.7-23.3-51.2C117.4,11.4,98.9,4,79.5,4z"/>
				</g>
			</g>
		</g>
		<g>
			<g>
				<path class="st0" d="M44.7,124.3c-5.4-4.2-10-9.5-13.6-15.4c-3.6-5.9-6-12.4-7.3-19.2c-1.2-6.8-1.2-13.8,0.1-20.6
					c1.3-6.8,3.8-13.4,7.4-19.2c3.6-5.9,8.3-11.1,13.8-15.3c5.5-4.2,11.8-7.4,18.4-9.4c6.6-2,13.7-2.8,20.6-2.2
					c3.5,0.2,6.9,0.8,10.3,1.7c3.4,0.9,6.6,2.1,9.8,3.5c3.1,1.5,6.2,3.3,9,5.3s5.5,4.3,7.9,6.8c4.8,5,8.8,10.9,11.5,17.4
					s4.3,13.4,4.6,20.3c0.1,3.5-0.1,7-0.6,10.5c-0.5,3.5-1.3,6.9-2.4,10.2c-2.2,6.6-5.7,12.9-10.2,18.2c-4.5,5.4-10,9.9-16.2,13.3
					c-6.2,3.4-12.9,5.7-19.9,6.6c-3.5,0.5-7,0.6-10.5,0.5c-1.8-0.1-3.5-0.2-5.3-0.5c-0.4-0.1-0.9-0.1-1.3-0.2l-0.6-0.1l-0.3,0
					c-0.1,0-0.2,0-0.4-0.1c-1-0.2-1.8-0.5-2.5-0.7c-0.7-0.2-1.2-0.9-1.1-1.7c0.2-0.7,0.9-1.2,1.7-1.1l0,0l0,0c1,0.2,1.7,0.5,2.5,0.7
					l0.3,0.1l0.3,0l0.6,0.1c0.4,0.1,0.8,0.1,1.2,0.2c1.7,0.2,3.3,0.4,5,0.5c3.4,0.2,6.7,0,10-0.4c6.6-0.9,13.2-3,19.1-6.2
					c5.9-3.2,11.2-7.5,15.6-12.7c4.3-5.1,7.8-11.1,10-17.5c1.1-3.2,1.9-6.5,2.4-9.8c0.5-3.3,0.7-6.7,0.6-10.1
					c-0.2-6.8-1.7-13.5-4.2-19.7s-6.4-12-11-16.9c-2.3-2.5-4.9-4.7-7.6-6.7c-2.8-2-5.7-3.7-8.7-5.2c-3.1-1.4-6.3-2.7-9.5-3.5
					c-3.3-0.9-6.6-1.5-10-1.8c-6.8-0.6-13.6,0.1-20.2,2s-12.7,5-18.2,9.1c-5.4,4.1-10.1,9.2-13.8,15s-6.2,12.3-7.5,19
					c-1.3,6.7-1.4,13.7-0.2,20.4c1.2,6.8,3.6,13.3,7.1,19.2C34.8,114.8,39.3,120,44.7,124.3z"/>
			</g>
		</g>
		<g>
			<path class="st0" d="M63.1,126.1"/>
		</g>
		<g>
			<path class="st0" d="M24.7,109c-0.3,0-0.6,0.1-1,0.3l-0.3,0.1l-0.2,0.1l-4.7,2.3c-0.4,0.2-0.7,0.4-0.9,0.6l-0.9-1.9
				c0.4-0.1,0.7-0.2,1-0.3l0.1-0.1l0.3-0.1l1.6-0.8l-1.2-2.6l-2.1,1c-0.3,0.1-0.6,0.3-0.9,0.6l-0.9-1.9c0.3,0,0.6-0.1,1-0.3l0.3-0.1
				l4.9-2.3c0.4-0.2,0.6-0.4,0.8-0.6l0.9,1.9c-0.4,0-0.7,0.1-1,0.3l-0.6,0.3l-1.8,0.8l1.2,2.6l2.4-1.1c0.1,0,0.2-0.1,0.4-0.2
				c0.2-0.1,0.3-0.2,0.4-0.4L24.7,109z"/>
			<path class="st0" d="M21.3,101.1c-0.3,0-0.6,0.1-1,0.2h-0.1l-0.5,0.2l-4.8,1.7c-0.4,0.1-0.7,0.3-0.9,0.5l-0.7-2.1
				c0.4,0,0.7-0.1,1.1-0.2l0.5-0.2l0.1,0l4.7-1.7c0.4-0.1,0.6-0.3,0.9-0.5L21.3,101.1z"/>
			<path class="st0" d="M10.9,92.4l1.2-0.4c-0.2,0.5-0.3,1-0.3,1.6c0,0.2,0,0.5,0.1,0.7c0.1,0.9,0.6,1.5,1.2,1.9
				c0.7,0.4,1.6,0.5,2.6,0.2c0.2,0,0.4-0.1,0.6-0.2c1.7-0.6,2.4-1.6,2.1-3c-0.1-0.4-0.2-0.7-0.5-1.1l-2,0.5
				c-0.2,0.1-0.4,0.1-0.5,0.1L15.3,93l-0.1,0l-0.1,0l-0.1,0.1l-0.5-2h0.1h0.1c0,0,0.1,0,0.4-0.1l0.3,0l2.2-0.5
				c0.1,0,0.3-0.1,0.6-0.3v0.1l0,0.1c0,0.3,0.1,0.6,0.2,1l0,0.1l0.3,0.7c0.1,0.3,0.3,0.7,0.4,1.1c0.3,1.3,0.2,2.4-0.4,3.3
				c-0.6,0.9-1.4,1.4-2.7,1.7c-1.2,0.2-2.2,0-3.1-0.6c-0.9-0.6-1.5-1.5-1.8-2.8c-0.1-0.2-0.1-0.5-0.1-0.8l0-0.3l0-0.2l0-0.3l0-0.2
				l0-0.2v0c0,0,0-0.1,0-0.1c0-0.1,0-0.1,0-0.1l0-0.1L10.9,92.4z"/>
			<path class="st0" d="M17.9,88.5c-0.3-0.1-0.6-0.1-1-0.1h-0.3h-0.2l-5.2,0.5c-0.4,0.1-0.7,0.1-1,0.2L10,87.1c0.4,0,0.7,0,1,0h0.2
				l0.3,0l1.8-0.2L13,84l-2.3,0.2c-0.4,0-0.7,0.1-1,0.2l-0.2-2.1c0.3,0.1,0.6,0.1,1.1,0.1h0.3l5.4-0.5c0.4,0,0.7-0.1,1-0.2l0.2,2.2
				c-0.4-0.1-0.7-0.1-1-0.1l-0.7,0l-2,0.2l0.3,2.9l2.7-0.2c0.1,0,0.3,0,0.5-0.1c0.2,0,0.4-0.1,0.5-0.2L17.9,88.5z"/>
			<path class="st0" d="M17.8,70.1c0.7-0.1,1.1-0.5,1.2-1.1c0.1-0.4,0-0.6-0.2-1c0.1,0,0.1,0.1,0.3,0.2c0.5,0.5,0.7,1,0.7,1.7
				c0,0.1,0,0.2-0.1,0.4c-0.2,0.7-0.7,1.1-1.6,1.3c0,0-0.1,0-0.1,0c0,0-0.1,0-0.1,0c0,0.1,0,0.1,0,0.2c0,0.1,0,0.2,0,0.4
				c-0.1,0.7-0.4,1.3-0.8,1.8c-1,1.2-2.1,1.7-3.6,1.5c-0.3,0-0.6-0.1-0.9-0.2c-0.8-0.2-1.4-0.7-1.9-1.3s-0.7-1.4-0.8-2.3
				c0-0.3,0-0.6,0-0.8c0.1-1.1,0.6-2,1.4-2.7s1.8-0.9,2.9-0.8c0.2,0,0.5,0.1,0.7,0.1c0.6,0.2,1.2,0.5,1.7,1
				C17.3,68.9,17.6,69.5,17.8,70.1z M16.7,70.5c-0.3-0.1-0.5-0.2-0.6-0.3c-0.4-0.3-0.7-0.5-0.9-0.5c-0.2-0.1-0.5-0.1-1-0.2
				c-0.3,0-0.6-0.1-0.7-0.1c-0.6,0-1.1,0.1-1.6,0.3c-0.7,0.3-1.1,0.7-1.2,1.4c-0.1,0.5,0.1,1,0.5,1.3c0.5,0.6,1.4,0.9,2.6,1.1
				c0.5,0,0.9,0,1.4,0c-0.3-0.4-0.5-0.8-0.4-1.2c0.1-0.7,0.6-1.2,1.6-1.6L16.7,70.5z M15.9,73.3c0.4-0.1,0.7-0.3,1-0.6
				c0.2-0.3,0.4-0.6,0.4-1l-0.2,0.1H17l-0.5,0.1c-0.5,0.1-0.8,0.3-0.8,0.6C15.6,72.8,15.7,73.1,15.9,73.3z"/>
			<path class="st0" d="M11.2,64.2l0.5-2c0.4,0.2,0.7,0.3,1,0.4l0.5,0.1l0.1,0.1l3.6,1c0.4,0.1,0.8,0.1,1,0c0.3-0.1,0.5-0.4,0.7-0.7
				c0.1-0.2,0.1-0.4,0.1-0.6c0-0.5,0-0.8-0.2-1.1c-0.2-0.2-0.6-0.5-1.1-0.6l-4-1.1c-0.1,0-0.3-0.1-0.5-0.1c-0.2,0-0.4-0.1-0.6-0.1
				l0.5-2c0.3,0.2,0.6,0.3,1,0.4l5.5,1.5c0.4,0.1,0.7,0.1,1,0.1l-0.5,1.9l-0.7-0.2c0.4,0.7,0.5,1.4,0.3,2.3c0,0.1-0.1,0.3-0.1,0.5
				c-0.2,0.7-0.6,1.2-1,1.4c-0.4,0.2-1,0.2-1.8,0l-4.3-1.2C11.9,64.3,11.6,64.2,11.2,64.2z"/>
			<path class="st0" d="M20.8,58.6c-0.1-0.2-0.2-0.4-0.4-0.5l-0.1-0.1l-0.8-0.8l-1.7-1.6c-1.4-1.3-2.3-2.1-2.7-2.3
				c-0.1-0.1-0.3-0.1-0.4-0.1h-0.1h-0.1l0.7-1.7h4.2c1.3,0,2.1,0,2.4,0c0.6,0,1.1-0.1,1.5-0.1l0.2,0l0.3-0.1l-0.9,2.2
				c-0.3-0.1-0.6-0.1-1.1-0.1h-0.7h-1.7l-0.9,2.1l1.4,1.4l0.2,0.2c0.3,0.2,0.6,0.4,0.9,0.4L20.8,58.6z M18.2,54.8l0.7-1.6l-2.5,0
				L18.2,54.8z"/>
			<path class="st0" d="M24.6,50.4c-0.2-0.3-0.6-0.5-1-0.8L19,47c-0.1,0-0.1-0.1-0.2-0.1c-0.4-0.2-0.8-0.4-1-0.4l1-1.8l0.1,0.1
				l0.1,0.1l0.1,0.1l0.2,0.1c0.2,0.1,0.3,0.2,0.4,0.3l5.1,2.9l0.5-0.8c0.4-0.6,0.6-1.2,0.7-1.8l0.8,0.8L24.6,50.4z"/>
			<path class="st0" d="M27.7,45c-0.2-0.2-0.4-0.5-0.7-0.7l0,0L26.5,44l-4.2-2.9c-0.4-0.2-0.7-0.4-1-0.5l1.2-1.8
				c0.2,0.3,0.5,0.5,0.8,0.7l0.4,0.3l0.1,0.1l4.1,2.8c0.3,0.2,0.6,0.4,0.9,0.5L27.7,45z"/>
			<path class="st0" d="M24.4,37.8l-0.6-0.7l4.2-5.1l0.8,0.5l-0.2,0.1l-0.1,0.1c0,0-0.1,0.1-0.2,0.2c-0.4,0.4-0.7,0.7-0.8,0.8
				L27,34.3l4.3,3.6c0,0,0.1,0.1,0.2,0.2c0.4,0.3,0.7,0.5,1,0.6l-1.4,1.7c-0.2-0.4-0.6-0.7-1-1.1l-4.3-3.6l-0.4,0.5
				c-0.1,0.2-0.4,0.5-0.7,1c0,0.1-0.1,0.1-0.2,0.2l-0.1,0.2L24.4,37.8z"/>
			<path class="st0" d="M29.1,30.8l1.7-1.6l3.7,1.3L33.7,28c-0.1-0.2-0.2-0.5-0.4-0.7l-0.2-0.2l1.2-1.1c0,0.4,0.1,0.7,0.2,1.1
				c0,0,0,0.1,0.1,0.3l0.8,3c0.1,0.2,0.2,0.5,0.5,0.8l0.1,0.1l1,1.1c0,0,0.1,0.1,0.3,0.3c0.2,0.2,0.5,0.4,0.7,0.5l-1.6,1.5
				c-0.1-0.2-0.2-0.4-0.4-0.6c-0.1-0.1-0.2-0.2-0.3-0.4l-1.3-1.4l-3.8-1.1c-0.1,0-0.3-0.1-0.7-0.2h-0.1L29.1,30.8z"/>
			<path class="st0" d="M43.8,28.6c-0.1-0.4-0.3-0.7-0.6-1.2L40.4,23c-0.1-0.1-0.1-0.1-0.1-0.2c-0.3-0.4-0.5-0.7-0.7-0.8l1.7-1.1
				l0.1,0.1l0,0.1l0.1,0.1l0.1,0.2c0.1,0.2,0.2,0.4,0.2,0.4l3.2,5l0.8-0.5c0.6-0.4,1.1-0.8,1.4-1.3l0.3,1.1L43.8,28.6z"/>
			<path class="st0" d="M49.1,25.3c-0.1-0.3-0.2-0.6-0.3-1v0l-0.2-0.5l-2.4-4.5c-0.2-0.4-0.4-0.6-0.7-0.8l1.9-1
				c0.1,0.4,0.2,0.7,0.4,1l0.2,0.5L48,19l2.4,4.4c0.2,0.3,0.4,0.6,0.6,0.8L49.1,25.3z"/>
			<path class="st0" d="M57.8,21c0.5,0.5,1,0.7,1.6,0.5c0.3-0.1,0.6-0.3,0.7-0.6c0,0.1,0,0.2,0,0.3c-0.1,0.7-0.5,1.2-1.1,1.4
				c-0.1,0-0.2,0.1-0.3,0.1c-0.7,0.1-1.3-0.1-1.9-0.7c0,0,0,0-0.1-0.1c0,0,0-0.1-0.1-0.1c-0.1,0-0.1,0.1-0.1,0.1
				c-0.1,0.1-0.2,0.1-0.4,0.2c-0.6,0.2-1.3,0.3-1.9,0.2c-1.5-0.2-2.5-1.1-3-2.4c-0.1-0.3-0.2-0.6-0.3-0.9c-0.2-0.8-0.1-1.6,0.2-2.3
				c0.3-0.7,0.8-1.3,1.6-1.8c0.2-0.1,0.5-0.3,0.8-0.4c1.1-0.4,2.1-0.4,3,0c1,0.4,1.6,1.1,2.1,2.2c0.1,0.2,0.2,0.5,0.2,0.7
				c0.1,0.6,0.1,1.3,0,1.9C58.5,20,58.2,20.5,57.8,21z M56.9,20.2c0-0.3,0-0.6,0-0.7c0.1-0.5,0.1-0.8,0-1c0-0.2-0.1-0.5-0.3-1
				c-0.1-0.3-0.2-0.5-0.3-0.7c-0.3-0.5-0.6-0.9-1-1.2c-0.6-0.5-1.2-0.6-1.8-0.4c-0.5,0.2-0.8,0.5-1,1.1c-0.2,0.7-0.1,1.7,0.3,2.8
				c0.2,0.4,0.4,0.8,0.7,1.2c0.2-0.5,0.5-0.8,0.8-1c0.6-0.2,1.3,0,2.2,0.6L56.9,20.2z M54.1,20.9c0.2,0.3,0.6,0.5,1,0.5
				c0.4,0.1,0.7,0,1.1-0.1L56,21.1l0,0l-0.4-0.4c-0.3-0.4-0.6-0.5-1-0.4C54.3,20.4,54.1,20.6,54.1,20.9z"/>
			<path class="st0" d="M59.7,12.4l2-0.5c0,0.4,0.1,0.7,0.1,1.1l0.1,0.5l0,0.2l0.9,3.6c0.1,0.4,0.2,0.7,0.5,0.9
				c0.2,0.2,0.6,0.3,1,0.3c0.2,0,0.4-0.1,0.6-0.2c0.4-0.2,0.7-0.4,0.8-0.7c0.1-0.3,0.1-0.7,0-1.2l-1-4c0-0.1-0.1-0.3-0.1-0.5
				c-0.1-0.2-0.1-0.4-0.2-0.5l2-0.5c0,0.4,0,0.7,0.1,1.1l1.3,5.5c0.1,0.4,0.2,0.7,0.4,1l-1.9,0.5L66.2,18c-0.4,0.6-1,1.1-1.9,1.4
				c-0.1,0-0.3,0.1-0.5,0.1c-0.8,0.1-1.3,0.1-1.7-0.2c-0.4-0.3-0.7-0.8-0.9-1.6l-1.1-4.4C60,13.1,59.9,12.8,59.7,12.4z"/>
			<path class="st0" d="M69.6,14.3c-0.1-1.1,0.1-2,0.6-2.8c0.5-0.8,1.3-1.3,2.3-1.6c0.3-0.1,0.6-0.1,0.8-0.1
				c1.1-0.1,2.1,0.2,2.9,0.8c0.8,0.6,1.2,1.5,1.3,2.7c0,0.2,0,0.5,0,0.7c0,0.8-0.4,1.6-0.9,2.3c-0.5,0.6-1.2,1.1-2.1,1.3
				c-0.3,0.1-0.6,0.1-0.9,0.2c-0.7,0.1-1.4,0-2-0.4C70.4,16.8,69.7,15.7,69.6,14.3z M71.5,14c0.1,1.1,0.4,1.9,0.9,2.4
				c0.4,0.5,0.9,0.7,1.5,0.7c0.6-0.1,1.1-0.4,1.4-1c0.3-0.6,0.4-1.5,0.3-2.6c-0.1-0.8-0.3-1.5-0.6-2.1c-0.4-0.7-1-1.1-1.7-1
				c-0.7,0.1-1.2,0.5-1.5,1.2c-0.2,0.4-0.2,1-0.2,1.8C71.5,13.6,71.5,13.8,71.5,14z"/>
			<path class="st0" d="M80,9.5l1.5,0.1c0,0,0.4,0,1,0h0.7c0.1,0,0.2,0,0.3,0c0.5,0,1,0.2,1.3,0.4c0.6,0.4,0.8,0.8,0.8,1.5
				c0,0.5-0.2,0.8-0.6,1.2c-0.3,0.3-0.7,0.5-1.1,0.7c-0.1,0-0.2,0.1-0.4,0.1l1.7,2.5c0.5,0.7,1,1.3,1.7,1.7l-1-0.1
				c-0.6,0-1.1-0.1-1.4-0.3c-0.3-0.1-0.6-0.5-0.9-1l-1.1-1.6l-0.2-0.4c-0.1-0.1-0.1-0.2-0.2-0.3l0,0L81.9,14l-0.1-0.1l-0.1,2.6
				c0,0.1,0,0.3,0,0.5c0,0.1,0,0.3,0.1,0.5l-2.2-0.1c0.1-0.4,0.2-0.8,0.2-1.3c0-0.2,0-0.3,0-0.2v-0.2l0.2-5
				C80.1,10.2,80.1,9.9,80,9.5z M81.8,13.2h0.1H82c0,0,0.1,0,0.2,0c0.5,0,0.9-0.2,1.2-0.5c0.3-0.3,0.4-0.7,0.5-1.1
				c0-0.8-0.4-1.3-1.4-1.3c-0.1,0-0.2,0-0.4,0c0,0,0,0-0.1,0s-0.1,0-0.1,0L81.8,13.2z"/>
		</g>
		<g>
			<g>
				<g>
					<path class="st0" d="M42.3,130.9l1.2,0.8c0,0,0.3,0.2,0.9,0.5l0.6,0.3c0.1,0.1,0.2,0.1,0.3,0.2c0.5,0.3,0.8,0.6,1,1
						c0.3,0.6,0.3,1.2,0,1.7c-0.2,0.4-0.6,0.6-1.1,0.8c-0.4,0.1-0.8,0.1-1.3,0c-0.1,0-0.2,0-0.4-0.1l0.2,3c0,0.9,0.2,1.7,0.6,2.3
						l-0.8-0.6c-0.5-0.4-0.9-0.6-1.1-0.9c-0.2-0.2-0.3-0.7-0.3-1.3l-0.1-1.9v-0.5c0-0.2,0-0.3,0-0.3l0,0l-0.1-0.3l0-0.1l-1.4,2.2
						c-0.1,0.1-0.1,0.2-0.2,0.4c-0.1,0.1-0.1,0.3-0.2,0.5l-1.8-1.2c0.3-0.2,0.6-0.6,0.8-1c0.1-0.2,0.1-0.2,0.1-0.2l0.1-0.1l2.7-4.2
						C42.2,131.5,42.3,131.2,42.3,130.9z M42.1,134.9L42.1,134.9l0.1,0.1c0,0,0.1,0.1,0.2,0.1c0.4,0.2,0.8,0.3,1.3,0.1
						c0.4-0.1,0.7-0.4,1-0.7c0.5-0.7,0.2-1.3-0.6-1.8c-0.1-0.1-0.2-0.1-0.3-0.2c0,0,0,0-0.1,0c0,0-0.1,0-0.1,0L42.1,134.9z"/>
					<path class="st0" d="M54.5,138.9c0.2-0.1,0.4-0.2,0.5-0.4s0.1-0.4-0.1-0.7l1.2-0.1l0.3,1.2c-0.5,0.4-1.1,0.6-2.1,0.5l-2.3,4.8
						c-0.2,0.4-0.2,0.7-0.3,1l-1.8-0.8l0.3-0.7c-0.7,0.2-1.5,0.2-2.4-0.1c-0.1-0.1-0.3-0.1-0.4-0.2c-0.7-0.4-1.1-0.8-1.2-1.2
						c-0.1-0.5,0-1.1,0.3-1.8l1.9-4.1c0.1-0.3,0.2-0.6,0.4-1l1.8,0.9c-0.2,0.3-0.4,0.6-0.6,0.9l-0.2,0.5l-0.1,0.1l-1.6,3.3
						c-0.2,0.4-0.3,0.7-0.2,1c0,0.3,0.2,0.6,0.6,0.8c0.2,0.1,0.4,0.2,0.6,0.2c0.4,0.1,0.8,0.1,1.1-0.1c0.3-0.2,0.6-0.5,0.8-1
						l1.8-3.7c0.1-0.1,0.1-0.3,0.2-0.5c0.1-0.2,0.1-0.4,0.2-0.5l1.1,0.7c0.1,0.1,0.1,0.2,0.2,0.4C54.6,138.5,54.6,138.7,54.5,138.9z
						"/>
					<path class="st0" d="M62.8,141.5c0.1-0.1,0.2-0.2,0.3-0.4c0.1-0.2,0-0.4-0.1-0.6l1.2-0.3l0.4,1.1c-0.3,0.4-0.8,0.6-1.5,0.7
						c0.3,0.8,0.4,1.7,0.1,2.6c-0.1,0.2-0.2,0.5-0.3,0.7c-0.4,0.8-0.9,1.4-1.7,1.8c-0.7,0.4-1.5,0.5-2.4,0.4c-0.3,0-0.6-0.1-0.9-0.2
						c-0.7-0.2-1.3-0.6-1.7-1.1c-1-1.1-1.3-2.4-0.8-3.8c0.3-1,0.8-1.8,1.6-2.3c0.8-0.5,1.7-0.7,2.7-0.6c0.3,0,0.6,0.1,0.8,0.2
						C61.5,140.1,62.3,140.7,62.8,141.5z M56.6,148.3l1.3-0.6l0.7,1.3l-1.3,0.6L56.6,148.3z M57.2,142.9c-0.3,1-0.4,1.9-0.1,2.6
						c0.2,0.6,0.6,1,1.1,1.2c0.6,0.2,1.1,0.1,1.6-0.4c0.6-0.5,1-1.2,1.3-2.3c0.2-0.8,0.3-1.5,0.2-2.1c-0.1-0.8-0.5-1.4-1.2-1.6
						c-0.7-0.2-1.3,0-1.8,0.5c-0.3,0.4-0.6,0.8-0.9,1.6C57.3,142.6,57.3,142.8,57.2,142.9z"/>
					<path class="st0" d="M65.7,141.3l2,0.3c-0.1,0.4-0.2,0.7-0.3,1l-0.1,0.5l0,0.1l-0.6,3.6c-0.1,0.4,0,0.8,0.1,1
						c0.1,0.3,0.4,0.5,0.8,0.6c0.2,0.1,0.4,0.1,0.6,0.1c0.5,0,0.8-0.1,1-0.4c0.2-0.2,0.4-0.6,0.5-1.1l0.7-4.1c0-0.1,0-0.3,0-0.5
						s0-0.4,0-0.6l2,0.3c-0.1,0.3-0.2,0.7-0.3,1l-0.9,5.6c-0.1,0.4-0.1,0.7,0,1l-1.9-0.3l0.1-0.7c-0.6,0.5-1.4,0.6-2.3,0.5
						c-0.1,0-0.3,0-0.5-0.1c-0.8-0.2-1.3-0.5-1.5-0.8c-0.2-0.4-0.3-1-0.2-1.8l0.7-4.5C65.7,142.1,65.7,141.7,65.7,141.3z"/>
					<path class="st0" d="M77.7,143.7l0.1-0.9l6.6-0.2l0.2,0.9l-0.2,0l-0.2,0c-0.1,0-0.2,0-0.3,0c-0.6-0.1-1-0.1-1.2-0.1H82l0.1,5.7
						c0,0.1,0,0.1,0,0.3c0,0.5,0.1,0.8,0.2,1.2l-2.2,0.1c0.1-0.5,0.2-0.9,0.1-1.4l-0.1-5.7h-0.6c-0.2,0-0.6,0.1-1.2,0.1
						c-0.1,0-0.2,0-0.3,0l-0.2,0L77.7,143.7z"/>
					<path class="st0" d="M85.6,142.5l1.5-0.2c0,0,0.4-0.1,1-0.2l0.7-0.1c0.1,0,0.2,0,0.3-0.1c0.5-0.1,1,0,1.4,0.1
						c0.6,0.2,1,0.7,1.1,1.3c0.1,0.5,0,0.9-0.3,1.3c-0.2,0.4-0.6,0.7-1,0.9c-0.1,0-0.2,0.1-0.3,0.1l2.1,2.1c0.6,0.6,1.3,1.1,1.9,1.3
						l-1,0.1c-0.6,0.1-1.1,0.1-1.4,0c-0.3-0.1-0.6-0.4-1.1-0.7l-1.4-1.3l-0.3-0.3c-0.1-0.1-0.2-0.2-0.2-0.2l0,0l-0.2-0.2l-0.1-0.1
						l0.4,2.5c0,0.1,0.1,0.3,0.1,0.5c0,0.1,0.1,0.3,0.2,0.5l-2.1,0.3c0.1-0.4,0.1-0.8,0-1.3c0-0.2,0-0.3,0-0.2l0-0.1l-0.7-5
						C85.9,143.1,85.8,142.8,85.6,142.5z M88.1,145.7h0.1h0.1c0,0,0.1,0,0.2,0c0.5-0.1,0.8-0.4,1.1-0.7c0.2-0.4,0.3-0.7,0.2-1.2
						c-0.1-0.8-0.7-1.2-1.6-1c-0.1,0-0.2,0-0.4,0.1c0,0,0,0-0.1,0s-0.1,0-0.1,0L88.1,145.7z"/>
					<path class="st0" d="M93.3,141.3l2-0.6c0,0.4,0.1,0.7,0.2,1.1l0.1,0.5l0,0.1l1,3.6c0.1,0.4,0.3,0.7,0.5,0.9
						c0.2,0.2,0.6,0.3,1,0.2c0.2,0,0.4-0.1,0.6-0.2c0.4-0.2,0.7-0.5,0.8-0.8c0.1-0.3,0.1-0.7,0-1.2l-1.1-4c0-0.1-0.1-0.3-0.2-0.5
						s-0.1-0.4-0.2-0.5l2-0.6c0,0.4,0.1,0.7,0.2,1.1l1.6,5.5c0.1,0.4,0.2,0.7,0.4,0.9l-1.9,0.5l-0.2-0.7c-0.4,0.7-1,1.2-1.9,1.4
						c-0.1,0-0.3,0.1-0.5,0.1c-0.8,0.2-1.3,0.1-1.7-0.1c-0.4-0.2-0.7-0.8-0.9-1.6l-1.2-4.3C93.6,142,93.5,141.6,93.3,141.3z"/>
					<path class="st0" d="M100.8,139.1l2.2-0.9l3,2.5l0-2.7c0-0.3,0-0.5-0.2-0.8l-0.1-0.2l1.5-0.6c-0.1,0.4-0.2,0.7-0.2,1.1
						c0,0,0,0.1,0,0.3l-0.2,3.1c0,0.2,0,0.5,0.1,0.9l0.1,0.2l0.6,1.4c0,0,0.1,0.2,0.2,0.4c0.1,0.2,0.3,0.5,0.5,0.7l-2.1,0.9
						c0-0.2,0-0.5-0.1-0.7c0-0.2-0.1-0.3-0.1-0.4l-0.7-1.8L102,140c-0.1,0-0.2-0.2-0.6-0.4l-0.1,0L100.8,139.1z"/>
					<path class="st0" d="M106.6,133.9l1.3-0.7l0.9,1.2L106.6,133.9z M111.9,142.7c-0.1-0.3-0.2-0.7-0.4-1.1l-0.1-0.1l-2.5-4.6
						c-0.2-0.3-0.4-0.6-0.5-0.7l-0.1-0.1l-0.1-0.1l4.1-2.3l0.5,0.7c-0.4,0.1-0.9,0.2-1.4,0.5c-0.1,0.1-0.2,0.1-0.3,0.2l-1,0.5
						l1.3,2.4l0.6-0.4c0.1,0,0.1-0.1,0.2-0.1c0.3-0.2,0.6-0.5,0.9-0.8l0.5,1c-0.4,0-0.7,0.2-1.1,0.4c-0.1,0.1-0.2,0.1-0.3,0.1
						l-0.6,0.4l1.5,2.7l1.2-0.7c0.6-0.4,1.2-0.8,1.6-1.2l0.2,1.1L111.9,142.7z M109.1,135.1l-0.1-1.5l1.1-0.6l1.2,0.9h-1.4
						L109.1,135.1z"/>
					<path class="st0" d="M113.6,132.8l1.6-1.2l6.3,2.1l-2.5-3.5c-0.2-0.3-0.4-0.5-0.7-0.8l1-0.7c0,0,0,0.1,0.1,0.1
						c0,0.1,0,0.1,0.1,0.1c0.2,0.4,0.3,0.6,0.4,0.7l3.9,5.4l-1.2,0.8l-6.8-2.2l2.8,3.9c0.2,0.2,0.4,0.5,0.7,0.7l-1,0.7
						c-0.1-0.2-0.2-0.5-0.3-0.7c0,0,0-0.1-0.1-0.1s0-0.1-0.1-0.1l-0.4-0.5l-2.7-3.6c-0.2-0.3-0.4-0.5-0.5-0.6
						C114,133,113.8,132.8,113.6,132.8z"/>
					<path class="st0" d="M123.8,125.9l-0.5-0.7l4.5-4.8l0.7,0.5l-0.2,0.1l-0.2,0.1c-0.1,0-0.1,0.1-0.2,0.2
						c-0.5,0.4-0.7,0.6-0.9,0.8l-0.5,0.5l4.1,3.9c0,0,0.1,0.1,0.2,0.2c0.4,0.3,0.7,0.5,1,0.7l-1.5,1.6c-0.2-0.4-0.6-0.8-0.9-1.1
						l-4.1-3.9l-0.5,0.5c-0.1,0.1-0.4,0.5-0.7,1c0,0-0.1,0.1-0.2,0.2l-0.1,0.2L123.8,125.9z"/>
					<path class="st0" d="M134.8,124c-0.2-0.2-0.4-0.5-0.7-0.7l-0.2-0.2l-0.2-0.1l-4.2-3c-0.4-0.2-0.7-0.4-0.9-0.5l1.2-1.7
						c0.2,0.3,0.5,0.5,0.8,0.7l0.1,0.1l0.2,0.2l1.4,1.1l1.7-2.4l-1.9-1.3c-0.3-0.2-0.6-0.4-0.9-0.5l1.2-1.7c0.2,0.2,0.4,0.5,0.7,0.7
						l0.2,0.2l4.4,3.2c0.3,0.2,0.6,0.4,0.9,0.5l-1.3,1.8c-0.2-0.3-0.5-0.5-0.7-0.7l-0.5-0.4l-1.6-1.2l-1.7,2.4l2.2,1.6
						c0.1,0.1,0.2,0.1,0.4,0.2c0.2,0.1,0.4,0.2,0.5,0.2L134.8,124z"/>
					<path class="st0" d="M134.7,110.1l-1-1.2l0.6-1.1l1.5,0.1l-1.2,0.7L134.7,110.1z M135.1,107.7l-1.1-0.8l0.7-1.3L135.1,107.7z
						 M137,114.5c-1-0.5-1.6-1.1-1.9-2c-0.4-0.9-0.4-1.8,0-2.8c0.1-0.3,0.2-0.5,0.4-0.8c0.5-1,1.3-1.7,2.3-2c1-0.3,2-0.2,3,0.3
						c0.2,0.1,0.4,0.2,0.6,0.4c0.7,0.5,1.2,1.2,1.4,1.9c0.2,0.8,0.2,1.6,0,2.4c-0.1,0.3-0.2,0.6-0.4,0.8c-0.4,0.7-0.8,1.2-1.4,1.5
						C139.6,115.1,138.3,115.2,137,114.5z M137.8,112.7c1,0.5,1.8,0.7,2.5,0.6c0.6-0.1,1.1-0.4,1.4-0.9c0.3-0.5,0.3-1.1,0-1.7
						c-0.4-0.6-1-1.2-2-1.7c-0.7-0.4-1.4-0.6-2.1-0.6c-0.8,0-1.4,0.2-1.8,0.9c-0.3,0.6-0.3,1.3,0.2,1.9c0.3,0.4,0.7,0.8,1.3,1.2
						C137.6,112.6,137.7,112.7,137.8,112.7z"/>
					<path class="st0" d="M137.8,104.2l0.7-1.9l6.4-1.9l-4.1-1.4c-0.3-0.1-0.7-0.2-1-0.2l0.4-1.1c0,0,0.1,0,0.1,0.1
						c0,0,0.1,0,0.1,0.1c0.4,0.2,0.6,0.3,0.7,0.4l6.3,2.3l-0.5,1.4l-6.9,2l4.5,1.6c0.3,0.1,0.6,0.2,1,0.2l-0.4,1.1
						c-0.2-0.1-0.4-0.3-0.7-0.4c0,0-0.1,0-0.1,0c0,0-0.1,0-0.1-0.1l-0.6-0.2l-4.2-1.5c-0.4-0.1-0.6-0.2-0.8-0.2
						C138.2,104.2,137.9,104.2,137.8,104.2z"/>
					<path class="st0" d="M142.2,89.3l1.2,0.1c-0.4,0.3-0.7,0.8-1,1.3c-0.1,0.2-0.2,0.5-0.2,0.7c-0.2,0.8-0.2,1.6,0.2,2.2
						c0.4,0.7,1.2,1.1,2.3,1.3c0.2,0,0.4,0.1,0.6,0.1c1.8,0.2,2.9-0.4,3.2-1.8c0.1-0.4,0.1-0.8,0-1.1l-2-0.4c-0.2,0-0.4-0.1-0.5-0.1
						h-0.2h-0.1h-0.1h-0.1l0.4-2l0.1,0l0.1,0c0,0,0.1,0,0.4,0.1l0.2,0.1l2.2,0.5c0.1,0,0.3,0,0.7,0l0,0.1l0,0.1
						c-0.1,0.3-0.1,0.6-0.2,1v0.1v0.7c0,0.4-0.1,0.7-0.1,1.2c-0.3,1.3-0.8,2.3-1.8,2.9c-0.9,0.6-1.9,0.7-3.1,0.4
						c-1.1-0.3-2-0.9-2.5-1.8c-0.5-0.9-0.7-2-0.4-3.3c0.1-0.2,0.1-0.5,0.2-0.8l0.1-0.3l0.1-0.2l0.1-0.2l0.1-0.2l0.1-0.2l0,0
						c0,0,0-0.1,0-0.1c0-0.1,0-0.1,0-0.1v-0.1L142.2,89.3z"/>
				</g>
			</g>
			<g>
				<g>
					<circle class="st0" cx="27.5" cy="124" r="2.3"/>
				</g>
			</g>
		</g>
		<g>
			<path class="st0" d="M42.4,122.2l-0.2,0.2c0.6,0.6,1.3,1.1,2,1.6C43.6,123.4,43,122.8,42.4,122.2z"/>
		</g>
		<g>
			<g>
				<g>
					<polygon class="st0" points="73.9,52 62.8,33.8 53.3,40.4 52.2,38.9 63.4,31 75.6,51 					"/>
				</g>
			</g>
			<g>
				<g>
					<path class="st0" d="M39.9,44.6l2.1,0.5c0,0,2.8-3,3.8-4c1.2-1.2,5.1-4.6,5.1-4.6c-0.8-0.7-0.9-0.8-1.6-1.4l-5.2,5L39.9,44.6z"
						/>
				</g>
				<g>
					<path class="st0" d="M62.7,46.9l-9.3,7l1.2,1.8c3.1-2.7,6.4-5.1,9.9-7.1C64.2,48.2,63.6,47.6,62.7,46.9z"/>
				</g>
				<g>
					<path class="st0" d="M61.3,45.6c-0.8-0.7-1.2-1-2.1-1.9l-7.8,7l1.2,1.8L61.3,45.6z"/>
				</g>
				<g>
					<path class="st0" d="M54.5,39.7c-0.7-0.7-1.3-1.2-2.1-1.8l-8,7.9l2.8,0.7L54.5,39.7z"/>
				</g>
				<g>
					<path class="st0" d="M57.6,42.4c-0.6-0.5-1.1-1-1.7-1.5l-6.8,6.8l1.2,1.8L57.6,42.4z"/>
				</g>
				<g>
					<path class="st0" d="M41.5,72.4l-6.4-8l-9.5-2.1c-2.2,6.9-3.2,14.4-2.6,22c0.8,10.2,4.4,19.8,10,27.8c3.8,5.4,8.6,9.9,13.7,14
						l0.2-0.2c-6.4-6.6-9.7-15.8-10.7-28.4C35.5,88.9,37.5,80.2,41.5,72.4z"/>
				</g>
				<g>
					<path class="st0" d="M47.4,48.1L34.9,45c-0.3,0.4-0.5,0.7-0.8,1.1l11.8,3.3l5.8,8.9c0.5-0.5,1.1-1.1,1.6-1.6L47.4,48.1z"/>
				</g>
				<g>
					<path class="st0" d="M37.5,44.1c0,0,3.4-3.6,4.6-4.8c1.5-1.4,6.1-5.4,6.1-5.4c-0.4-0.3-1-0.7-1.2-0.9
						c-4.1,3.1-7.9,6.7-11.1,10.7L37.5,44.1z"/>
				</g>
				<g>
					<path class="st0" d="M44.8,50.7l-11.7-3.2c-1.1,1.6-2.2,3.3-3.1,5l11.2,2.3l6.1,8.5c1-1.3,2.1-2.5,3.2-3.8L44.8,50.7z"/>
				</g>
				<g>
					<path class="st0" d="M40.3,56.3l-11-2.3c-1.1,2.3-2.3,4.6-3.1,7.1l9.9,1.9l6.3,7.8c1.2-2.1,2.5-4.2,4-6.2L40.3,56.3z"/>
				</g>
			</g>
			<g>
				<path class="st0" d="M69.8,72.9c3.9-2.2,8.2-4.2,12.7-5.9l-1.3-5.1l-8.8,3.7l-0.2-1.8l8.6-3.6l-0.6-2.3l-8.4,3.3l-0.2-1.8
					l8.1-3.2L79,53.8l-7.7,3L71.1,55l7.4-2.9l-0.6-2.3c-3.9,1.3-7.6,3-11,5L69.8,72.9z"/>
			</g>
			<g>
				<g>
					<path class="st0" d="M111.7,59.9c-0.2,0.3-5.9,8.1-19.3,16.4C79,84.5,58.5,96.1,58.5,100.5c-0.7,7.5,0.4,10.5,0.7,10.4
						c0.4-0.1,14.4-14.6,14.4-14.6s0.4,7.1-3,12.8c-3.4,5.7-12.6,16-21.6,9.3c-2.9-2.2-5-7.1-5.2-10.7C43,93.3,49.4,82.6,68.2,73.9
						l-0.2-1.6l-2.5-16.5c-0.7,0.5-1.4,0.9-2.2,1.4c-19.5,13.4-30.4,36.2-23.6,58.7c0.4,1.5,0.5,4.6,2.9,6.9
						c7.6,7.2,14.8,10.1,20.3,11.7c2,0.6,3.6,1.2,5.1,1.6c1.1-0.8,2.5-2.4,3.7-4.1c3.4-4.2,4.8-11.7,5-17.2
						C77,101.1,83,87.9,93.1,79c10.1-9,20.3-17.6,20.3-17.6S112,59.6,111.7,59.9z M42.1,107.7C35,85.9,58.9,64.3,58.9,64.3l2.3,8.6
						C61.2,72.9,40.3,79.6,42.1,107.7z M77.7,92.6c-1.7,0-3.1-1.4-3.1-3.1c0-1.7,1.4-3.1,3.1-3.1c1.7,0,3.1,1.4,3.1,3.1
						C80.8,91.3,79.4,92.6,77.7,92.6z"/>
				</g>
				<g>
					<path class="st0" d="M77.7,87.7c-1,0-1.8,0.8-1.8,1.8c0,1,0.8,1.8,1.8,1.8s1.8-0.8,1.8-1.8C79.5,88.5,78.7,87.7,77.7,87.7z"/>
				</g>
			</g>
		</g>
		<g>
			<path class="st0" d="M56,85.2c-1.2,0-2.1,1.4-3,2.9c-1,1.4,1.8,1.8,4.3,0.9c2.4-0.9,15.1-3.5,15.1-3.5S57.5,85.2,56,85.2z"/>
		</g>
		<g>
			<path class="st0" d="M72.6,85.9c-1.2,0.2-15.9,5-17.1,5.4c-1.1,0.4-1.2,2.9-1.4,4.7c-0.2,1.7,2.1,1.1,4.2-0.3
				C60.2,94.3,72.6,85.9,72.6,85.9z"/>
		</g>
		<g>
			<path class="st0" d="M100.2,98.1c0,0-4.8,8.8-0.5,14.6c2.7,3.5,4.5,3.7,5.7,5.4c1.8,2.4,2.2,4.7,2.2,4.7s1-0.8,0.8-2.6
				c-0.2-1.3-1.5-3.2-1.5-3.2s0.6-0.4,2.3,1.2c1.4,1.4,1.4,3.8,1.4,3.8s2.9-4.8-5.6-8.9c-6.9-3.3-5.9-5.6-3-13.3
				C104.9,92.3,100.2,98.1,100.2,98.1z"/>
		</g>
		<g>
			<path class="st0" d="M103.8,101.9c0,0-0.1,7.7,5.3,8.3c3.3,0.3,4.6-0.7,6.2-0.5c2.2,0.2,3.4,1.2,3.4,1.2s0.1-0.6-0.4-1.9
				c-0.4-0.8-1.2-1.6-1.2-1.6s0.2-0.2,1.5-0.2c1.6,0,2.4,0.8,2.4,0.8s-0.8-5.3-7.1-3.4c-6.3,1.9-7.3,3.1-8.2-2.9
				C104.9,95.9,103.8,101.9,103.8,101.9z"/>
		</g>
		<g>
			<g>
				<g>
					<g>
						<path class="st0" d="M145,69.4c0,0,0-0.4,0-0.9c0-0.6,0-1.3-0.1-2.1c0-0.7-0.1-1.5-0.1-2.1c0-0.6-0.1-1-0.1-1l-0.2,0
							c0,0,0,0.4,0.1,0.9c0,0.6,0.1,1.3,0.1,2.1c0.1,0.7,0.1,1.5,0.1,2.1s0,0.9,0,0.9L145,69.4z"/>
					</g>
				</g>
				<g>
					<g>
						<path class="st0" d="M123.6,72.4l0.2-0.1c0,0-0.1-0.2-0.2-0.7c-0.1-0.4-0.3-0.9-0.5-1.4c-0.2-0.5-0.4-1-0.5-1.4
							s-0.2-0.6-0.2-0.6l-0.2,0.1c0,0,0.1,0.2,0.2,0.6s0.3,0.9,0.5,1.4c0.2,0.5,0.4,1,0.5,1.4C123.6,72.1,123.6,72.4,123.6,72.4z"/>
					</g>
				</g>
			</g>
			<g>
				<g>
					<g>
						<path class="st0" d="M122.1,59.2c1.5,0.5,3.4,0.3,5.3,0.8c1.9,0.4,3.9,1.4,5.4,4.6c0.4,0.7,0.9,1.8,1.4,3.1
							c-0.2-1.3-0.3-2.6-0.4-3.4c-0.5-3.5,0.2-5.6,1.2-7.4s2.3-3.1,2.8-4.9c0.3-1,0.3-2.1,0.2-2.9c0-0.8-0.1-1.4-0.1-1.4
							c2.5,3.4,3.6,6.8,4,9.8c0.4,3,0,5.7-0.8,8.1c-1.5,4.7-4.3,7.8-5.2,10.5l-0.2,0c-1.6-2.3-5.3-4.3-8.7-6.9
							c-1.7-1.3-3.3-2.8-4.7-4.6c-1.4-1.8-2.5-4.1-3.3-7c0,0,0.4,0.3,0.9,0.6C120.5,58.5,121.3,58.9,122.1,59.2z"/>
					</g>
				</g>
				<g>
					<g>
						<path class="st0" d="M138.1,47.6c0,0-0.6-1.4-1.1-2.8c-0.6-1.4-1.2-2.8-1.2-2.8l-0.2,0.1c0,0,0.6,1.4,1.2,2.8
							c0.6,1.4,1.1,2.8,1.1,2.8L138.1,47.6z"/>
					</g>
				</g>
				<g>
					<g>
						<path class="st0" d="M119,57.6l0.2-0.1c0,0-0.7-0.8-1.3-1.7c-0.7-0.8-1.4-1.6-1.4-1.6l-0.2,0.2c0,0,0.7,0.8,1.4,1.6
							C118.3,56.7,119,57.6,119,57.6z"/>
					</g>
				</g>
			</g>
			<g>
				<g>
					<g>
						<path class="st0" d="M113.4,45.5c1.6,0,3.3-0.7,5.3-0.8c1.9-0.1,4.1,0.2,6.5,2.8c0.5,0.6,1.4,1.5,2.2,2.5
							c-0.5-1.2-1-2.4-1.3-3.1c-1.4-3.2-1.4-5.4-1-7.4c0.4-2,1.3-3.7,1.2-5.6c-0.1-1-0.4-2.1-0.6-2.9c-0.3-0.8-0.6-1.3-0.6-1.3
							c3.4,2.5,5.6,5.5,6.9,8.3c1.2,2.9,1.6,5.6,1.5,8c0,1.2-0.2,2.4-0.4,3.5c-0.2,1.1-0.4,2.1-0.7,3.1c-0.2,1-0.5,1.9-0.7,2.7
							c-0.2,0.8-0.4,1.6-0.4,2.3l-0.2,0.1c-2.2-1.8-6.2-2.8-10.1-4.3c-2-0.8-4-1.7-5.8-3c-1.8-1.3-3.5-3.1-5.1-5.6
							c0,0,0.4,0.1,1,0.3C111.7,45.3,112.5,45.5,113.4,45.5z"/>
					</g>
				</g>
				<g>
					<g>
						<path class="st0" d="M125.2,29.7c0,0-0.2-0.3-0.6-0.7c-0.4-0.5-0.8-1-1.4-1.6c-0.5-0.6-1-1.2-1.4-1.6
							c-0.4-0.4-0.7-0.7-0.7-0.7l-0.2,0.1c0,0,0.3,0.3,0.7,0.7s0.9,1,1.4,1.6c1,1.1,1.9,2.4,1.9,2.4L125.2,29.7z"/>
					</g>
				</g>
				<g>
					<g>
						<path class="st0" d="M110,45l0.1-0.2c0,0-0.8-0.6-1.8-1.2c-0.5-0.3-0.9-0.6-1.2-0.8c-0.4-0.2-0.6-0.3-0.6-0.3l-0.1,0.2
							c0,0,0.2,0.1,0.6,0.3c0.4,0.2,0.8,0.5,1.2,0.8c0.5,0.3,0.9,0.6,1.2,0.8C109.8,44.8,110,45,110,45z"/>
					</g>
				</g>
			</g>
			<g>
				<g>
					<g>
						<path class="st0" d="M103.7,36.5c1.3-0.3,2.7-1.1,4.4-1.6c1.7-0.5,3.6-0.8,5.8-0.2c-1-2.1-1.3-4-1.6-5.9
							c-0.2-1.9-0.2-3.5-0.7-5c-0.3-1-0.9-1.9-1.4-2.6c-0.5-0.7-0.9-1.1-0.9-1.1c3.5,1.3,6.2,3.3,8.1,5.3c1.9,2.1,3.1,4.3,3.8,6.5
							c1.4,4.3,0.9,8.3,1,11.3c-2.9-0.7-6.7-0.7-10.5-1.2c-1.9-0.3-3.8-0.7-5.7-1.6c-1.9-0.8-3.7-2-5.8-3.7c0,0,0.4,0,1.1,0
							C102,36.8,102.8,36.7,103.7,36.5z"/>
					</g>
				</g>
				<g>
					<g>
						<path class="st0" d="M109.5,20.1c0,0-0.1-0.1-0.2-0.1c-0.1-0.1-0.3-0.2-0.6-0.4c-0.5-0.3-1.1-0.7-1.7-1.2
							c-0.6-0.4-1.3-0.8-1.8-1.1c-0.5-0.3-0.8-0.5-0.8-0.5l-0.1,0.2c0,0,0.3,0.2,0.8,0.5c0.5,0.3,1.1,0.7,1.8,1.1
							c0.6,0.4,1.3,0.8,1.7,1.2c0.5,0.3,0.8,0.6,0.8,0.6L109.5,20.1z"/>
					</g>
				</g>
				<g>
					<g>
						<path class="st0" d="M100.2,36.9l0.1-0.2c0,0-0.2-0.1-0.6-0.2c-0.4-0.1-0.9-0.3-1.4-0.4c-0.5-0.2-1-0.3-1.4-0.4
							c-0.4-0.1-0.6-0.2-0.6-0.2l0,0.2c0,0,0.2,0.1,0.6,0.2c0.4,0.1,0.9,0.2,1.4,0.4c0.5,0.1,1,0.3,1.4,0.4c0.2,0.1,0.4,0.1,0.5,0.1
							C100.1,36.9,100.2,36.9,100.2,36.9z"/>
					</g>
				</g>
			</g>
			<g>
				<g>
					<g>
						<path class="st0" d="M95.7,30.1c0.8-0.4,1.9-0.8,3.2-1.1c1.3-0.4,2.7-0.6,3.9-0.7c-0.7-0.8-1.4-2.1-2.1-3.4
							c-0.7-1.3-1.3-2.5-1.8-3.3c-0.5-0.8-1.2-1.7-1.8-2.2c-0.6-0.5-1.1-0.9-1.1-0.9c5.6,0.8,9.2,3.4,11.3,6.2
							c1.1,1.3,1.8,2.9,2.3,4.3c0.5,1.4,0.8,2.9,1,4.2c-1.3,0.2-2.7,0.5-4.1,0.6c-1.4,0.2-2.9,0.3-4.4,0.3c-3-0.1-6.1-0.8-10-2.9
							c0,0,0.5,0,1.1-0.2C94,30.7,94.8,30.5,95.7,30.1z"/>
					</g>
				</g>
				<g>
					<g>
						<path class="st0" d="M96.2,18.3c0,0-0.3-0.1-0.8-0.4c-0.5-0.2-1.2-0.5-1.8-0.8c-0.7-0.2-1.3-0.5-1.9-0.7
							c-0.2-0.1-0.5-0.2-0.6-0.2c-0.1,0-0.2-0.1-0.2-0.1l-0.1,0.2c0,0,0.1,0,0.2,0.1c0.1,0,0.4,0.1,0.6,0.2c0.5,0.2,1.2,0.5,1.9,0.7
							c0.4,0.1,0.7,0.2,1,0.4s0.6,0.3,0.8,0.4c0.5,0.2,0.8,0.4,0.8,0.4L96.2,18.3z"/>
					</g>
				</g>
				<g>
					<g>
						<path class="st0" d="M92.2,31.1v-0.2c0,0-0.3,0-0.7-0.1c-0.2,0-0.5-0.1-0.7-0.1c-0.3,0-0.6,0-0.8-0.1c-0.6,0-1.1-0.1-1.6-0.1
							c-0.2,0-0.4,0-0.5,0c-0.1,0-0.2,0-0.2,0v0.2c0,0,0.1,0,0.2,0c0.1,0,0.3,0,0.5,0c0.4,0,1,0.1,1.6,0.1c0.6,0,1.1,0.1,1.6,0.2
							C91.9,31.1,92.2,31.1,92.2,31.1z"/>
					</g>
				</g>
			</g>
			<g>
				<g>
					<path class="st0" d="M89.2,19.9c1,0.1,1.9,0.5,2.8,0.9s1.7,1,2.5,1.5c0.8,0.6,1.4,1.2,2.1,1.9c0.6,0.7,1.1,1.4,1.6,2.1
						c-0.8,0.3-1.6,0.6-2.4,0.8c-0.8,0.2-1.7,0.5-2.6,0.6s-1.7,0.2-2.6,0.3c-0.8,0.1-1.7,0-2.5-0.1c-1.2-0.1-2.1-0.6-3-1.1
						c-0.9-0.5-1.8-1.1-2.9-1.7c-1.1-0.5-2.2-1.2-3.7-1.5c-0.7-0.2-1.6-0.4-2.4-0.4s-1.9-0.1-2.9,0c1.1-0.1,2.1-0.2,2.9-0.4
						s1.7-0.3,2.4-0.5c1.5-0.4,2.8-0.8,3.9-1.3c1.2-0.5,2.3-0.8,3.4-1.2C86.7,19.8,87.9,19.8,89.2,19.9z"/>
				</g>
			</g>
			<g>
				<g>
					<path class="st0" d="M144.8,68.7c0,0-0.1,0.6-0.3,1.4c-0.2,0.8-0.6,1.8-1.2,2.7c-1,1.6-2.7,2.4-4.2,3.7
						c-0.8,0.7-1.5,1.5-2.1,2.5c-0.3,0.5-0.6,1.1-0.8,1.8c-0.2,0.7-0.4,1.4-0.6,2.3c-0.1,0.8-0.4,2.1-0.7,3.3
						c-0.1-1.3-0.3-2.6-0.4-3.4c-0.1-1.1-0.4-1.9-0.7-2.7s-0.7-1.3-1.1-1.8c-0.9-1-1.9-1.6-2.9-2.1c-1.1-0.5-2.2-0.9-3.2-1.6
						c-1.1-0.6-2-1.5-2.9-2.9c-0.1,3.1,0.2,5.6,1,7.7c0.7,2.2,1.8,4.1,3,5.8c2.4,3.5,5.3,6.5,6.1,9.2c0,0,0,0.1-0.1,0.3
						c0,0.2-0.1,0.5-0.2,0.9c-0.1,0.2-0.1,0.5-0.2,0.7c0.1,0,0.3,0,0.5,0c0.2-1.2,0.3-1.9,0.3-1.9c0.4-0.6,1-1.1,1.6-1.7
						c0.6-0.6,1.3-1.2,2.1-1.8c0.7-0.7,1.5-1.4,2.3-2.2c0.8-0.8,1.5-1.7,2.2-2.7c1.4-2,2.6-4.4,3.2-7.4
						C146.1,76.1,146,72.6,144.8,68.7z"/>
				</g>
			</g>
		</g>
		<path class="st0" d="M101.6,67c0,0.7,0,1.4-0.1,2.1c2.1-1.6,3.8-3.1,5.2-4.5c0-1.4,0.1-2.8,0.1-4.2c0-0.5-0.1-0.6-0.6-0.7
			c-1.3-0.2-2.8-0.2-4,0c-0.7,0.1-0.8,0.1-0.8,0.7C101.5,62.3,101.7,65,101.6,67z"/>
		<path class="st0" d="M115.1,92.9c-0.1-1.2-0.5-2.2-1.4-3.1c-0.8-0.8-1.8-1.5-3-1.9c-0.3-0.1-0.3-0.2-0.1-0.5
			c0.3-0.6,0.7-1.2,0.7-1.8c0.2-1.7-0.6-3-1.8-4.1c-0.6-0.6-1.2-1.2-1.8-1.8c-0.8-1-1-2.2-1.1-3.4c0-1.8-0.1-3.6-0.1-5.4
			c0-1,0-2,0-3c-1.6,1.3-3.3,2.9-5.2,4.5c0,1.2,0,2.5-0.1,3.7c0,0.7-0.1,1.5-0.4,2.2c-0.3,1-0.9,1.8-1.7,2.5c-1.1,1-2.1,2.1-2.3,3.6
			c-0.1,0.6,0,1.2,0.1,1.8c0.1,0.5,0.5,1,0.7,1.6c0,0,0,0,0,0c-0.1,0-0.2,0.1-0.2,0.1c-0.9,0.4-1.8,0.9-2.4,1.7
			c-1,1.2-1.5,2.5-1.5,4.1c0,1.4,0.5,2.8,1.3,4c0.7,1.1,1.6,2,2.6,2.8c0.1,0.1,0.2,0.2,0.3,0.3c0.2,0.9,0.8,1.5,1.6,1.9
			c0.4,0.2,0.7,0.5,1.1,0.6c1.4,0.5,2.8,0.7,4.3,0.7c0.5,0,1,0,1.5-0.1c0.8-0.1,1.7-0.3,2.5-0.5c0.7-0.2,1.3-0.6,1.7-1.3
			c0.4-0.7,1-1.2,1.5-1.8c0.4-0.4,0.8-0.7,1.2-1.2c1.1-1.2,1.7-2.5,1.8-4.1C115.2,94.2,115.1,93.6,115.1,92.9z"/>
	</g>
</g>
</svg>
